<svg width="24" height="24" viewBox="0 0 24 24" fill="none" xmlns="http://www.w3.org/2000/svg">
<path d="M11.9266 0.75C7.05156 0.75 2.88906 3.9 1.35156 8.25H22.5766C21.0016 3.9 16.8391 0.75 11.9266 0.75Z" fill="#F2B200"/>
<path d="M11.9266 23.25C16.8391 23.25 21.0016 20.1375 22.5391 15.75H1.35156C2.88906 20.1375 7.05156 23.25 11.9266 23.25Z" fill="#83BF4F"/>
<path d="M1.34844 8.25C0.935937 9.4125 0.710938 10.6875 0.710938 12C0.710938 13.3125 0.935937 14.5875 1.34844 15.75H22.5734C22.9859 14.5875 23.2109 13.3125 23.2109 12C23.2109 10.6875 22.9859 9.4125 22.5734 8.25H1.34844Z" fill="white"/>
<path d="M11.9258 15C13.5826 15 14.9258 13.6569 14.9258 12C14.9258 10.3431 13.5826 9 11.9258 9C10.2689 9 8.92578 10.3431 8.92578 12C8.92578 13.6569 10.2689 15 11.9258 15Z" fill="#428BC1"/>
<path d="M11.9258 14.625C13.3755 14.625 14.5508 13.4497 14.5508 12C14.5508 10.5503 13.3755 9.375 11.9258 9.375C10.476 9.375 9.30078 10.5503 9.30078 12C9.30078 13.4497 10.476 14.625 11.9258 14.625Z" fill="white"/>
<path d="M10.9492 9.75C11.0528 9.75 11.1367 9.66605 11.1367 9.5625C11.1367 9.45895 11.0528 9.375 10.9492 9.375C10.8457 9.375 10.7617 9.45895 10.7617 9.5625C10.7617 9.66605 10.8457 9.75 10.9492 9.75Z" fill="#428BC1"/>
<path d="M10.3477 10.0898C10.4512 10.0898 10.5352 10.0059 10.5352 9.90234C10.5352 9.79879 10.4512 9.71484 10.3477 9.71484C10.2441 9.71484 10.1602 9.79879 10.1602 9.90234C10.1602 10.0059 10.2441 10.0898 10.3477 10.0898Z" fill="#428BC1"/>
<path d="M9.85938 10.5781C9.96293 10.5781 10.0469 10.4942 10.0469 10.3906C10.0469 10.2871 9.96293 10.2031 9.85938 10.2031C9.75582 10.2031 9.67188 10.2871 9.67188 10.3906C9.67188 10.4942 9.75582 10.5781 9.85938 10.5781Z" fill="#428BC1"/>
<path d="M9.52344 11.1758C9.62699 11.1758 9.71094 11.0918 9.71094 10.9883C9.71094 10.8847 9.62699 10.8008 9.52344 10.8008C9.41988 10.8008 9.33594 10.8847 9.33594 10.9883C9.33594 11.0918 9.41988 11.1758 9.52344 11.1758Z" fill="#428BC1"/>
<path d="M9.33594 11.8516C9.43949 11.8516 9.52344 11.7676 9.52344 11.6641C9.52344 11.5605 9.43949 11.4766 9.33594 11.4766C9.23238 11.4766 9.14844 11.5605 9.14844 11.6641C9.14844 11.7676 9.23238 11.8516 9.33594 11.8516Z" fill="#428BC1"/>
<path d="M9.33594 12.5273C9.43949 12.5273 9.52344 12.4434 9.52344 12.3398C9.52344 12.2363 9.43949 12.1523 9.33594 12.1523C9.23238 12.1523 9.14844 12.2363 9.14844 12.3398C9.14844 12.4434 9.23238 12.5273 9.33594 12.5273Z" fill="#428BC1"/>
<path d="M9.52344 13.2031C9.62699 13.2031 9.71094 13.1192 9.71094 13.0156C9.71094 12.9121 9.62699 12.8281 9.52344 12.8281C9.41988 12.8281 9.33594 12.9121 9.33594 13.0156C9.33594 13.1192 9.41988 13.2031 9.52344 13.2031Z" fill="#428BC1"/>
<path d="M9.85938 13.8008C9.96293 13.8008 10.0469 13.7168 10.0469 13.6133C10.0469 13.5097 9.96293 13.4258 9.85938 13.4258C9.75582 13.4258 9.67188 13.5097 9.67188 13.6133C9.67188 13.7168 9.75582 13.8008 9.85938 13.8008Z" fill="#428BC1"/>
<path d="M10.3477 14.2891C10.4512 14.2891 10.5352 14.2051 10.5352 14.1016C10.5352 13.998 10.4512 13.9141 10.3477 13.9141C10.2441 13.9141 10.1602 13.998 10.1602 14.1016C10.1602 14.2051 10.2441 14.2891 10.3477 14.2891Z" fill="#428BC1"/>
<path d="M10.9492 14.625C11.0528 14.625 11.1367 14.5411 11.1367 14.4375C11.1367 14.3339 11.0528 14.25 10.9492 14.25C10.8457 14.25 10.7617 14.3339 10.7617 14.4375C10.7617 14.5411 10.8457 14.625 10.9492 14.625Z" fill="#428BC1"/>
<path d="M11.5859 14.7773C11.6895 14.7773 11.7734 14.6934 11.7734 14.5898C11.7734 14.4863 11.6895 14.4023 11.5859 14.4023C11.4824 14.4023 11.3984 14.4863 11.3984 14.5898C11.3984 14.6934 11.4824 14.7773 11.5859 14.7773Z" fill="#428BC1"/>
<path d="M12.1094 14.6273C12.1094 14.5148 12.1844 14.4398 12.2594 14.4023C12.3719 14.4023 12.4469 14.4773 12.4844 14.5523C12.4844 14.6648 12.4094 14.7398 12.3344 14.7773C12.1844 14.8148 12.1094 14.7398 12.1094 14.6273Z" fill="#428BC1"/>
<path d="M12.9375 14.625C13.0411 14.625 13.125 14.5411 13.125 14.4375C13.125 14.3339 13.0411 14.25 12.9375 14.25C12.8339 14.25 12.75 14.3339 12.75 14.4375C12.75 14.5411 12.8339 14.625 12.9375 14.625Z" fill="#428BC1"/>
<path d="M13.5352 14.2891C13.6387 14.2891 13.7227 14.2051 13.7227 14.1016C13.7227 13.998 13.6387 13.9141 13.5352 13.9141C13.4316 13.9141 13.3477 13.998 13.3477 14.1016C13.3477 14.2051 13.4316 14.2891 13.5352 14.2891Z" fill="#428BC1"/>
<path d="M14.0234 13.8008C14.127 13.8008 14.2109 13.7168 14.2109 13.6133C14.2109 13.5097 14.127 13.4258 14.0234 13.4258C13.9199 13.4258 13.8359 13.5097 13.8359 13.6133C13.8359 13.7168 13.9199 13.8008 14.0234 13.8008Z" fill="#428BC1"/>
<path d="M14.3594 13.2031C14.4629 13.2031 14.5469 13.1192 14.5469 13.0156C14.5469 12.9121 14.4629 12.8281 14.3594 12.8281C14.2558 12.8281 14.1719 12.9121 14.1719 13.0156C14.1719 13.1192 14.2558 13.2031 14.3594 13.2031Z" fill="#428BC1"/>
<path d="M14.5469 12.5273C14.6504 12.5273 14.7344 12.4434 14.7344 12.3398C14.7344 12.2363 14.6504 12.1523 14.5469 12.1523C14.4433 12.1523 14.3594 12.2363 14.3594 12.3398C14.3594 12.4434 14.4433 12.5273 14.5469 12.5273Z" fill="#428BC1"/>
<path d="M14.5492 11.8516C14.4367 11.8516 14.3617 11.7766 14.3242 11.7016C14.3242 11.5891 14.3992 11.5141 14.4742 11.4766C14.5867 11.4766 14.6617 11.5516 14.6992 11.6266C14.7367 11.7391 14.6617 11.8141 14.5492 11.8516Z" fill="#428BC1"/>
<path d="M14.3594 11.1758C14.4629 11.1758 14.5469 11.0918 14.5469 10.9883C14.5469 10.8847 14.4629 10.8008 14.3594 10.8008C14.2558 10.8008 14.1719 10.8847 14.1719 10.9883C14.1719 11.0918 14.2558 11.1758 14.3594 11.1758Z" fill="#428BC1"/>
<path d="M14.0234 10.5781C14.127 10.5781 14.2109 10.4942 14.2109 10.3906C14.2109 10.2871 14.127 10.2031 14.0234 10.2031C13.9199 10.2031 13.8359 10.2871 13.8359 10.3906C13.8359 10.4942 13.9199 10.5781 14.0234 10.5781Z" fill="#428BC1"/>
<path d="M13.5352 10.0898C13.6387 10.0898 13.7227 10.0059 13.7227 9.90234C13.7227 9.79879 13.6387 9.71484 13.5352 9.71484C13.4316 9.71484 13.3477 9.79879 13.3477 9.90234C13.3477 10.0059 13.4316 10.0898 13.5352 10.0898Z" fill="#428BC1"/>
<path d="M13.1234 9.63944C13.0859 9.75194 12.9734 9.78944 12.8609 9.75194C12.7484 9.71444 12.7109 9.60194 12.7484 9.48944C12.7859 9.37694 12.8984 9.33944 13.0109 9.37694C13.1234 9.45194 13.1609 9.56444 13.1234 9.63944ZM12.4484 9.41444C12.4484 9.52694 12.3359 9.60194 12.2234 9.56444C12.1109 9.56444 12.0359 9.45194 12.0734 9.33944C12.0734 9.22694 12.1859 9.15194 12.2984 9.18944C12.4109 9.22694 12.4859 9.33944 12.4484 9.41444ZM11.7734 9.37694C11.7734 9.48944 11.6984 9.56444 11.6234 9.60194C11.5109 9.60194 11.4359 9.52694 11.3984 9.45194C11.3984 9.33944 11.4734 9.26444 11.5484 9.22694C11.6609 9.18944 11.7734 9.26444 11.7734 9.37694Z" fill="#428BC1"/>
<path d="M11.9219 12.5625C12.2325 12.5625 12.4844 12.3107 12.4844 12C12.4844 11.6893 12.2325 11.4375 11.9219 11.4375C11.6112 11.4375 11.3594 11.6893 11.3594 12C11.3594 12.3107 11.6112 12.5625 11.9219 12.5625Z" fill="#428BC1"/>
<path d="M11.925 9.375L11.85 10.9875L11.925 12L12.0375 10.9875L11.925 9.375ZM11.25 9.45L11.5875 11.0625L11.925 12L11.775 10.9875L11.25 9.45Z" fill="#428BC1"/>
<path d="M10.6109 9.71484L11.3609 11.1773L11.9234 12.0023L11.5109 11.0648L10.6109 9.71484ZM10.0859 10.1273L11.1734 11.3648L11.9234 12.0023L11.2859 11.2148L10.0859 10.1273Z" fill="#428BC1"/>
<path d="M9.67188 10.6875L11.0219 11.5875L11.9219 12L11.0969 11.4L9.67188 10.6875Z" fill="#428BC1"/>
<path d="M9.40938 11.3281L10.9469 11.8156L11.9219 12.0031L10.9844 11.6656L9.40938 11.3281ZM9.29688 12.0031L10.9469 12.0781L11.9219 12.0031L10.9469 11.9281L9.29688 12.0031Z" fill="#428BC1"/>
<path d="M9.41016 12.675L10.9852 12.3375L11.9227 12L10.9477 12.1875L9.41016 12.675ZM9.67266 13.3125L11.0977 12.6L11.9227 12L11.0227 12.4125L9.67266 13.3125Z" fill="#428BC1"/>
<path d="M10.0859 13.8375L11.2859 12.7875L11.9234 12L11.1734 12.6375L10.0859 13.8375ZM10.6109 14.2875L11.5109 12.9L11.9234 12L11.3609 12.825L10.6109 14.2875Z" fill="#428BC1"/>
<path d="M11.25 14.55L11.775 13.0125L11.925 12L11.5875 12.9375L11.25 14.55ZM11.925 14.625L12.0375 13.0125L11.925 12L11.85 13.0125L11.925 14.625ZM12.6 14.55L12.3 12.9375L11.925 12L12.1125 13.0125L12.6 14.55Z" fill="#428BC1"/>
<path d="M13.2344 14.2875L12.5219 12.825L11.9219 12L12.3719 12.9375L13.2344 14.2875ZM13.7969 13.8375L12.7094 12.6375L11.9219 12L12.5969 12.7875L13.7969 13.8375Z" fill="#428BC1"/>
<path d="M14.2094 13.3156L12.8594 12.4156L11.9219 12.0031L12.7469 12.6031L14.2094 13.3156ZM14.4719 12.6781L12.9344 12.1906L11.9219 12.0031L12.8969 12.3406L14.4719 12.6781ZM14.5469 12.0031L12.9344 11.8906L11.9219 12.0031L12.9344 12.0781L14.5469 12.0031ZM14.4719 11.3281L12.8969 11.6656L11.9219 12.0031L12.9344 11.8156L14.4719 11.3281Z" fill="#428BC1"/>
<path d="M14.2094 10.6891L12.7469 11.4016L11.9219 12.0016L12.8594 11.5891L14.2094 10.6891ZM13.7969 10.1641L12.5969 11.2141L11.9219 12.0016L12.7094 11.3641L13.7969 10.1641Z" fill="#428BC1"/>
<path d="M13.2344 9.71484L12.3719 11.1023L11.9219 12.0023L12.5219 11.1773L13.2344 9.71484Z" fill="#428BC1"/>
<path d="M12.6344 9.45312L12.1094 10.9906L11.9219 12.0031L12.2969 11.0656L12.6344 9.45312Z" fill="#428BC1"/>
</svg>
