<svg width="175" height="126" viewBox="0 0 175 126" fill="none" xmlns="http://www.w3.org/2000/svg">
<g clip-path="url(#clip0_1575_4777)">
<path d="M13.6598 17.4235C17.7165 17.4235 21.0051 14.1055 21.0051 10.0125C21.0051 5.91956 17.7165 2.60156 13.6598 2.60156C9.60307 2.60156 6.31445 5.91956 6.31445 10.0125C6.31445 14.1055 9.60307 17.4235 13.6598 17.4235Z" fill="#FF6584"/>
<path d="M59.0738 120.965C64.9169 123.407 71.1206 124.856 77.4331 125.252C80.3906 125.438 83.4038 125.447 86.346 125.053C88.924 124.707 91.5427 123.999 93.6916 122.465C95.8396 120.906 97.3517 118.611 97.9458 116.009C98.6029 113.267 98.3264 110.394 97.3878 107.752C96.4191 105.018 94.8876 102.522 92.894 100.427C91.107 98.5817 88.6036 96.903 85.9269 97.2189C83.3539 97.5227 81.4826 99.6213 80.7973 102.049C79.9757 104.96 80.921 108.039 82.2029 110.66C84.3773 115.105 87.8669 118.836 91.9996 121.489C96.157 124.175 100.937 125.72 105.867 125.973C110.806 126.197 116.12 125.042 120.012 121.821C122.062 120.141 123.525 117.843 124.189 115.263C124.881 112.541 124.7 109.666 124.102 106.945C122.803 101.037 119.374 95.9586 117.388 90.3037C116.896 88.9238 116.516 87.5054 116.254 86.0629C116.189 85.6928 115.63 85.8496 115.695 86.2184C116.722 92.0357 119.972 97.0445 122.106 102.462C124.049 107.397 125.206 113.455 122.327 118.273C119.737 122.608 114.594 124.72 109.798 125.26C105.108 125.787 100.307 124.939 96.0078 123.001C91.6805 121.05 87.8025 118.01 84.9891 114.149C83.46 112.05 82.1427 109.673 81.4673 107.148C80.7759 104.562 80.938 101.634 82.7668 99.5462C83.5742 98.5958 84.6981 97.9762 85.9269 97.804C87.2035 97.6428 88.482 98.0036 89.604 98.6053C92.013 99.8972 93.8057 102.143 95.1889 104.465C96.618 106.864 97.6249 109.583 97.7248 112.402C97.8177 115.022 97.1361 117.709 95.5746 119.831C92.3508 124.211 86.2918 124.742 81.3192 124.776C75.2245 124.814 69.1636 123.86 63.37 121.95C61.9697 121.489 60.5891 120.972 59.2279 120.401C58.8836 120.257 58.7335 120.823 59.0738 120.965H59.0738Z" fill="#E4E4E5"/>
<path d="M43.9987 101.982L42.4414 99.5702C42.2599 99.2884 42.1966 98.9454 42.2654 98.6166C42.3342 98.2878 42.5295 97.9999 42.8084 97.8161L52.2941 90.3768C52.5734 90.1937 52.9133 90.1298 53.2392 90.1992C53.5652 90.2686 53.8505 90.4657 54.0326 90.7471L55.5899 93.1589C55.7714 93.4407 55.8347 93.7837 55.7659 94.1125C55.6971 94.4414 55.5018 94.7292 55.2229 94.913L45.7373 102.352C45.4579 102.535 45.118 102.599 44.7921 102.53C44.4662 102.46 44.1808 102.263 43.9987 101.982Z" fill="#141414"/>
<path d="M42.819 97.8281L45.3208 96.4446C45.6131 96.2834 45.9569 96.2457 46.2766 96.3399C46.5964 96.4341 46.8661 96.6524 47.0265 96.9469L53.6692 109.022C53.829 109.317 53.8663 109.664 53.773 109.987C53.6796 110.309 53.4633 110.581 53.1713 110.743L50.6695 112.127C50.3772 112.288 50.0335 112.326 49.7137 112.232C49.3939 112.137 49.1243 111.919 48.9638 111.625L42.3211 99.5491C42.1614 99.2542 42.124 98.9074 42.2174 98.5847C42.3107 98.2621 42.5271 97.99 42.819 97.8281Z" fill="#141414"/>
<path d="M25.4293 75.6072C25.1106 75.6067 24.804 75.484 24.5716 75.264C24.3392 75.0441 24.1983 74.7432 24.1774 74.4223L23.991 71.55C23.9692 71.2145 24.0804 70.884 24.3001 70.6313C24.5198 70.3785 24.8301 70.2242 25.1626 70.2022L47.4668 68.7284C47.8184 68.7052 48.1711 68.7521 48.5047 68.8664C48.8383 68.9806 49.1464 69.1601 49.4113 69.3945C49.6761 69.6289 49.8927 69.9137 50.0485 70.2325C50.2043 70.5513 50.2964 70.898 50.3194 71.2527C50.3424 71.6074 50.296 71.9633 50.1827 72.2999C50.0694 72.6365 49.8915 72.9473 49.6592 73.2145C49.4269 73.4818 49.1447 73.7003 48.8286 73.8575C48.5126 74.0147 48.169 74.1075 47.8175 74.1308L25.5133 75.6044C25.4852 75.6062 25.4572 75.6071 25.4293 75.6072Z" fill="#7633FF"/>
<path d="M29.8279 75.9781C29.503 75.9775 29.1909 75.8502 28.957 75.6227C28.723 75.3952 28.5854 75.0852 28.5729 74.7577L28.414 70.4675C28.4078 70.3011 28.4342 70.1352 28.4916 69.9791C28.549 69.823 28.6363 69.6799 28.7485 69.5579C28.8608 69.4359 28.9957 69.3373 29.1457 69.268C29.2957 69.1986 29.4578 69.1597 29.6226 69.1535L47.964 68.4618C48.297 68.4493 48.6213 68.5707 48.8656 68.7994C49.1098 69.0281 49.254 69.3453 49.2665 69.6813L49.4254 73.9715C49.4316 74.1378 49.4052 74.3038 49.3478 74.4598C49.2904 74.6159 49.2031 74.759 49.0909 74.8811C48.9786 75.0031 48.8437 75.1016 48.6937 75.171C48.5437 75.2404 48.3816 75.2793 48.2168 75.2855L29.8754 75.9771C29.8595 75.9778 29.8436 75.9781 29.8279 75.9781Z" fill="#E4E4E5"/>
<path d="M59.2784 121.336V112.026C59.2784 103.898 55.764 96.104 49.4932 91.0026C44.8062 87.1896 38.0173 84.3383 28.292 84.9754L31.9969 70.0234L0 92.1116L31.3233 114.2L28.1236 100.097C28.1236 100.097 47.6585 96.3593 59.2784 121.336Z" fill="#141414"/>
<path d="M36.9017 106.62L34.5941 104.927C34.3249 104.729 34.1446 104.431 34.0926 104.099C34.0406 103.767 34.1212 103.428 34.3168 103.156L48.3003 83.7521C48.4965 83.4805 48.7915 83.2985 49.1205 83.246C49.4496 83.1936 49.7858 83.2749 50.0554 83.4723L52.3629 85.165C52.6322 85.363 52.8125 85.6606 52.8645 85.9926C52.9165 86.3245 52.8359 86.6638 52.6403 86.9358L38.6568 106.34C38.4606 106.611 38.1656 106.793 37.8366 106.846C37.5075 106.898 37.1713 106.817 36.9017 106.62Z" fill="#141414"/>
<path d="M34.3299 103.162L36.178 100.969C36.3941 100.714 36.7019 100.555 37.0339 100.528C37.366 100.5 37.6951 100.607 37.9491 100.825L48.424 109.715C48.6776 109.933 48.835 110.244 48.8619 110.579C48.8888 110.914 48.7828 111.246 48.5673 111.502L46.7192 113.695C46.5032 113.951 46.1954 114.11 45.8633 114.137C45.5313 114.164 45.2022 114.057 44.9482 113.84L34.4732 104.949C34.2197 104.731 34.0622 104.421 34.0354 104.086C34.0085 103.751 34.1144 103.419 34.3299 103.162Z" fill="#141414"/>
<path d="M46.9871 63.9629C52.4317 63.9629 56.8453 59.5098 56.8453 54.0166C56.8453 48.5234 52.4317 44.0703 46.9871 44.0703C41.5426 44.0703 37.1289 48.5234 37.1289 54.0166C37.1289 59.5098 41.5426 63.9629 46.9871 63.9629Z" fill="#7633FF"/>
<path d="M42.6511 58.3969C42.3174 58.4039 41.9861 58.3388 41.6794 58.2059C41.4723 58.1067 41.2893 57.9631 41.143 57.7851C40.9968 57.607 40.8909 57.3989 40.8327 57.1752C40.7884 57.0169 40.781 56.8503 40.8111 56.6886C40.8412 56.5269 40.9079 56.3744 41.0061 56.243C41.2635 55.9097 41.7081 55.7512 42.2312 55.7918L40.9365 52.1351L41.3005 52.0039L42.8226 56.3026L42.4794 56.2241C42.0816 56.1333 41.5656 56.1532 41.311 56.4828C41.2494 56.5679 41.208 56.6662 41.1902 56.77C41.1723 56.8739 41.1784 56.9804 41.208 57.0815C41.2522 57.2478 41.3314 57.4026 41.4402 57.5352C41.549 57.6679 41.6848 57.7753 41.8384 57.8503C42.3765 58.0954 43.0063 58.0082 43.7141 57.8788L43.783 58.2625C43.4104 58.3413 43.0316 58.3863 42.6511 58.3969Z" fill="#141414"/>
<path d="M39.15 52.8533L37.1123 53.2852L37.1918 53.6668L39.2294 53.2349L39.15 52.8533Z" fill="#141414"/>
<path d="M45.5816 51.49L43.5439 51.9219L43.6234 52.3035L45.6611 51.8716L45.5816 51.49Z" fill="#141414"/>
<path d="M55.2188 96.7016H38.5952C38.1596 96.7011 37.7419 96.5263 37.4339 96.2155C37.1259 95.9047 36.9526 95.4833 36.9521 95.0438L40.4323 68.1178C40.4351 67.6803 40.6094 67.2617 40.9171 66.9534C41.2248 66.6452 41.6409 66.4723 42.0746 66.4727H47.974C50.3304 66.4753 52.5895 67.421 54.2557 69.1021C55.922 70.7832 56.8592 73.0625 56.8619 75.4399V95.0438C56.8614 95.4833 56.6881 95.9047 56.3801 96.2155C56.0721 96.5263 55.6545 96.7011 55.2188 96.7016Z" fill="#E4E4E5"/>
<path d="M29.2601 85.4595C29.0175 85.4597 28.7801 85.3891 28.5764 85.2562C28.3726 85.1234 28.2113 84.934 28.1118 84.7108L26.9441 82.0844C26.8765 81.9325 26.8393 81.7687 26.8345 81.6023C26.8297 81.4359 26.8575 81.2702 26.9162 81.1146C26.9749 80.959 27.0634 80.8166 27.1766 80.6956C27.2899 80.5745 27.4256 80.4771 27.5762 80.409L47.9701 71.1785C48.2915 71.033 48.6382 70.9528 48.9904 70.9425C49.3426 70.9322 49.6933 70.992 50.0226 71.1185C50.3519 71.2449 50.6532 71.4356 50.9095 71.6795C51.1657 71.9235 51.3718 72.216 51.516 72.5403C51.6602 72.8647 51.7397 73.2145 51.7499 73.5698C51.7601 73.9251 51.7009 74.279 51.5756 74.6112C51.4502 74.9434 51.2613 75.2474 51.0195 75.506C50.7776 75.7645 50.4877 75.9725 50.1663 76.118L29.7725 85.3485C29.6114 85.4216 29.4367 85.4595 29.2601 85.4595Z" fill="#7633FF"/>
<path d="M35.2085 84.1046C34.9659 84.1048 34.7285 84.0342 34.5248 83.9013C34.321 83.7685 34.1597 83.5791 34.0602 83.3559L32.0656 78.8699C31.9297 78.5631 31.9198 78.2144 32.0383 77.9003C32.1569 77.5862 32.394 77.3324 32.6978 77.1945L49.4441 69.615C49.5946 69.5468 49.757 69.5093 49.9219 69.5044C50.0869 69.4996 50.2511 69.5276 50.4053 69.5868C50.5595 69.646 50.7007 69.7353 50.8207 69.8496C50.9407 69.9638 51.0372 70.1008 51.1047 70.2527L53.0993 74.7386C53.1668 74.8905 53.2041 75.0543 53.2088 75.2207C53.2136 75.3871 53.1859 75.5528 53.1272 75.7084C53.0685 75.864 52.98 76.0064 52.8667 76.1274C52.7535 76.2485 52.6177 76.3459 52.4672 76.414L35.7209 83.9936C35.5597 84.0667 35.3851 84.1045 35.2085 84.1046Z" fill="#E4E4E5"/>
<path d="M44.7998 47.7774C43.1947 47.1809 41.8753 48.7526 40.4209 49.1124C39.0294 49.4566 37.5304 48.6468 36.7872 47.4664C35.9201 46.0894 36.1349 44.3015 36.9237 42.9421C37.7876 41.4533 39.326 40.5397 40.9566 40.1406C42.8254 39.6833 44.7726 39.9082 46.617 40.3727C48.3861 40.7907 50.1012 41.4137 51.7283 42.2295C53.1993 42.9976 54.5936 44.0484 55.4533 45.5039C56.2346 46.8265 56.6211 48.4728 56.2345 49.9883C56.0216 50.7706 55.6125 51.4844 55.0466 52.0607C54.4643 52.6826 53.7972 53.2216 53.2543 53.8813C52.4333 54.8787 51.8816 56.5133 52.691 57.6931C52.8665 57.9513 53.1022 58.162 53.3774 58.3067C53.708 58.4804 54.0016 57.9757 53.6701 57.8015C53.088 57.4956 52.8766 56.8747 52.8923 56.2417C52.9236 55.5233 53.1958 54.8369 53.6643 54.295C54.233 53.6055 54.9361 53.0473 55.5365 52.3881C56.1175 51.7738 56.5427 51.027 56.776 50.2113C57.2027 48.6334 56.869 46.915 56.1137 45.4934C55.2963 43.9552 53.9263 42.7937 52.4353 41.9495C50.8127 41.0308 49.0093 40.4151 47.2188 39.9262C45.2976 39.4016 43.2803 39.1061 41.3033 39.4692C39.5895 39.7839 37.9146 40.6187 36.8369 42.031C35.8309 43.3493 35.3503 45.1462 35.8368 46.7684C36.0677 47.5029 36.4884 48.1621 37.0557 48.678C37.6229 49.194 38.3162 49.5481 39.0642 49.704C39.8247 49.8451 40.6099 49.7418 41.3091 49.4085C42.0624 49.068 42.7466 48.5385 43.5477 48.3121C43.9071 48.2013 44.2926 48.2116 44.6456 48.3416C44.9963 48.472 45.1476 47.9067 44.7998 47.7774Z" fill="#141414"/>
<path d="M115.722 87.4063V78.0958C115.722 69.9685 119.236 62.1743 125.507 57.0729C130.194 53.2599 136.983 50.4086 146.708 51.0457L143.003 36.0938L175 58.1819L143.677 80.2701L146.877 66.1676C146.877 66.1676 127.342 62.4296 115.722 87.4063Z" fill="#141414"/>
<path d="M133.114 40.8245C132.701 40.4883 132.396 40.0361 132.238 39.525C132.08 39.014 132.076 38.4671 132.225 37.9535C132.375 37.4399 132.673 36.9827 133.08 36.6397C133.488 36.2967 133.987 36.0832 134.514 36.0264L156.74 33.632C157.071 33.5967 157.403 33.6955 157.662 33.9065C157.921 34.1176 158.087 34.4238 158.123 34.7579L158.027 34.7683L158.123 34.7579L158.426 37.6201C158.443 37.7857 158.428 37.9531 158.381 38.1128C158.335 38.2725 158.258 38.4213 158.154 38.5509C158.05 38.6804 157.922 38.7881 157.778 38.8678C157.633 38.9475 157.474 38.9976 157.31 39.0152L135.084 41.4096C134.988 41.42 134.891 41.4252 134.794 41.4252C134.182 41.4256 133.589 41.2135 133.114 40.8245Z" fill="#7633FF"/>
<path d="M139.661 60.5992V57.7208C139.662 57.3847 139.794 57.0625 140.03 56.8248C140.265 56.5872 140.584 56.4535 140.918 56.4531H164.696C165.029 56.4535 165.348 56.5872 165.584 56.8248C165.82 57.0625 165.952 57.3847 165.952 57.7208V60.5992C165.952 60.9353 165.82 61.2575 165.584 61.4952C165.348 61.7328 165.029 61.8665 164.696 61.8669H140.918C140.584 61.8665 140.265 61.7328 140.03 61.4952C139.794 61.2575 139.662 60.9353 139.661 60.5992Z" fill="#7633FF"/>
<path d="M128.292 60.7372C128.144 60.6627 128.012 60.5593 127.905 60.4332C127.797 60.3071 127.715 60.1607 127.664 60.0024L126.769 57.269C126.665 56.9497 126.691 56.6019 126.84 56.3017C126.99 56.0015 127.252 55.7736 127.568 55.6678L150.148 48.146C150.464 48.0405 150.809 48.0663 151.107 48.2175C151.404 48.3687 151.63 48.633 151.735 48.9522L151.643 48.9828L151.735 48.9522L152.629 51.6855C152.733 52.0048 152.708 52.3527 152.558 52.6528C152.408 52.953 152.146 53.181 151.83 53.2867L129.251 60.8086C129.094 60.8612 128.929 60.882 128.764 60.8697C128.599 60.8575 128.439 60.8124 128.292 60.7372V60.7372Z" fill="#7633FF"/>
<path d="M157.894 61.5851L147.76 52.3664C147.513 52.1411 147.365 51.826 147.347 51.4904C147.33 51.1548 147.446 50.8259 147.668 50.5761L149.579 48.4382C149.802 48.1886 150.114 48.0386 150.447 48.0212C150.78 48.0039 151.106 48.1206 151.353 48.3457L161.487 57.5643C161.734 57.7897 161.883 58.1047 161.9 58.4403C161.917 58.776 161.802 59.1048 161.579 59.3547L159.668 61.4924C159.558 61.6164 159.425 61.7171 159.276 61.7887C159.127 61.8603 158.965 61.9014 158.8 61.9095C158.778 61.9108 158.756 61.9114 158.734 61.9113C158.423 61.9118 158.124 61.7955 157.894 61.5851Z" fill="#7633FF"/>
<path d="M132.131 28.4668C137.575 28.4668 141.989 24.0137 141.989 18.5205C141.989 13.0273 137.575 8.57422 132.131 8.57422C126.686 8.57422 122.272 13.0273 122.272 18.5205C122.272 24.0137 126.686 28.4668 132.131 28.4668Z" fill="#7633FF"/>
<path d="M120.593 57.9918C119.904 56.8028 119.54 55.45 119.54 54.0724C119.54 52.6947 119.904 51.3419 120.593 50.153L131.043 31.8916C131.153 31.6989 131.312 31.5389 131.503 31.4276C131.694 31.3164 131.911 31.2578 132.131 31.2578C132.352 31.2578 132.568 31.3164 132.759 31.4276C132.95 31.5389 133.109 31.6989 133.219 31.8916L149.31 60.0097C149.42 60.2024 149.478 60.421 149.478 60.6436C149.478 60.8661 149.42 61.0847 149.31 61.2774C149.199 61.4701 149.041 61.6301 148.85 61.7414C148.659 61.8526 148.442 61.9112 148.222 61.9112H127.322C125.956 61.9194 124.613 61.5607 123.431 60.8718C122.248 60.183 121.269 59.1889 120.593 57.9918Z" fill="#E4E4E5"/>
<path d="M140.257 22.304C140.896 22.2861 141.691 22.2637 142.304 21.8121C142.486 21.6721 142.636 21.4936 142.743 21.2891C142.85 21.0845 142.911 20.8588 142.922 20.6279C142.934 20.4637 142.907 20.2992 142.844 20.1472C142.782 19.9951 142.686 19.8597 142.563 19.7515C142.243 19.4786 141.776 19.4147 141.272 19.564L141.794 15.717L141.411 15.6641L140.797 20.1867L141.117 20.0386C141.488 19.867 141.997 19.7798 142.313 20.0494C142.391 20.1199 142.451 20.2075 142.49 20.3054C142.529 20.4034 142.544 20.509 142.536 20.6141C142.527 20.786 142.481 20.9538 142.401 21.1062C142.322 21.2586 142.211 21.3919 142.076 21.4971C141.599 21.8485 140.965 21.8938 140.246 21.9141L140.257 22.304Z" fill="#141414"/>
<path d="M139.197 16.0508H137.115V16.4408H139.197V16.0508Z" fill="#141414"/>
<path d="M126.286 6.78899C126.012 5.66012 125.505 4.60249 124.797 3.6856C124.089 2.76872 123.197 2.01334 122.179 1.46911C121.135 0.927887 119.985 0.62802 118.812 0.591299C117.639 0.554577 116.473 0.781921 115.398 1.25682C114.297 1.73265 113.319 2.45752 112.54 3.3754C111.761 4.29328 111.201 5.3796 110.905 6.55041C110.599 7.72825 110.557 8.95981 110.781 10.1561C111.056 11.4233 111.589 12.6188 112.346 13.6669C113.11 14.7826 114.008 15.7952 114.832 16.8642C115.659 17.9354 116.413 19.0627 117.087 20.2381C119.118 23.7796 120.406 27.7046 120.871 31.7693C121.028 32.997 121.058 34.2379 120.959 35.4718C120.738 37.8679 119.817 40.2148 117.706 41.5186C116.583 42.2118 115.287 42.5697 114.006 42.8201C112.567 43.1277 111.094 43.2438 109.626 43.1654C107.143 42.9874 104.659 41.9422 103.217 39.8136C102.898 39.3395 102.648 38.8216 102.475 38.2758C102.361 37.9166 102.92 37.7628 103.035 38.1202C103.798 40.5088 106.116 41.9812 108.461 42.4301C109.922 42.677 111.413 42.6756 112.873 42.4258C114.2 42.226 115.567 41.9493 116.783 41.3588C117.887 40.839 118.804 39.9844 119.404 38.914C119.946 37.8807 120.275 36.7469 120.369 35.5814C120.627 33.0297 120.207 30.388 119.576 27.9199C118.902 25.2784 117.868 22.7441 116.503 20.3894C115.822 19.2128 115.059 18.0863 114.22 17.0182C113.389 15.9616 112.503 14.9457 111.754 13.8265C111.014 12.7707 110.493 11.5753 110.222 10.3117C109.991 9.09927 110.012 7.8517 110.285 6.64811C110.547 5.46027 111.062 4.34379 111.792 3.37517C112.522 2.40656 113.452 1.60872 114.516 1.03635C116.605 -0.0755343 119.151 -0.341751 121.385 0.477553C123.554 1.28492 125.319 2.92315 126.297 5.03622C126.532 5.54879 126.716 6.08389 126.845 6.63346C126.93 6.99966 126.371 7.15595 126.286 6.789V6.78899Z" fill="#141414"/>
<path d="M124.401 7.26371C124.038 6.21839 123.305 5.34489 122.344 4.81021C121.382 4.27552 120.259 4.11717 119.189 4.36541C118.826 4.45108 118.671 3.88709 119.035 3.80123C120.254 3.49955 121.54 3.67237 122.639 4.28526C123.737 4.89815 124.566 5.90609 124.961 7.10818C125.082 7.46499 124.522 7.61824 124.401 7.26371Z" fill="#141414"/>
<path d="M124.314 9.3779C124.203 9.11651 124.199 8.82137 124.303 8.55723C124.408 8.29309 124.612 8.08152 124.87 7.96892L127.534 6.81372C127.793 6.70139 128.086 6.69749 128.348 6.80288C128.61 6.90826 128.82 7.11431 128.931 7.37568C129.042 7.63705 129.046 7.93234 128.942 8.19659C128.837 8.46084 128.633 8.6724 128.374 8.78473L125.71 9.93993C125.451 10.0522 125.158 10.0561 124.896 9.95073C124.635 9.84533 124.425 9.63928 124.314 9.3779Z" fill="#141414"/>
<path d="M130.87 64.1947L128.027 63.9618C127.695 63.9341 127.387 63.7748 127.171 63.5187C126.956 63.2626 126.85 62.9306 126.876 62.5956L128.685 40.1179C128.713 39.7635 128.811 39.4182 128.971 39.1017C129.132 38.7853 129.353 38.5038 129.621 38.2735C129.89 38.0432 130.201 37.8685 130.536 37.7594C130.871 37.6503 131.225 37.609 131.576 37.6378C131.927 37.6666 132.27 37.7649 132.583 37.9271C132.897 38.0894 133.176 38.3124 133.404 38.5834C133.632 38.8544 133.805 39.1681 133.913 39.5066C134.021 39.845 134.062 40.2017 134.033 40.5561L132.224 63.0337C132.199 63.3507 132.056 63.6465 131.824 63.8624C131.593 64.0782 131.289 64.1983 130.974 64.1989C130.94 64.1989 130.905 64.1974 130.87 64.1947Z" fill="#7633FF"/>
<path d="M2.50655 19.4406C1.49028 17.0435 2.88335 13.9162 5.33475 13.0916C7.78615 12.2669 10.7606 13.9249 11.3735 16.4577C10.9773 15.4824 10.8107 14.4276 10.8868 13.3763C10.9629 12.3251 11.2798 11.3059 11.8124 10.3991C12.345 9.49229 13.0788 8.72248 13.9562 8.15023C14.8336 7.57798 15.8306 7.2189 16.8688 7.1012C17.907 6.98351 18.9581 7.11043 19.9395 7.47197C20.9208 7.83351 21.8057 8.41982 22.5245 9.1848C23.2432 9.94977 23.7763 10.8726 24.0818 11.8806C24.3873 12.8886 24.4568 13.9544 24.2849 14.9941C25.7626 12.7961 28.9333 11.966 31.2838 13.1617C33.6344 14.3574 34.8583 17.423 33.9855 19.9287L1.63184 19.8704" fill="#F8F9FA"/>
<path d="M68.0349 46.7453C67.0186 44.3482 68.4117 41.2209 70.8631 40.3963C73.3145 39.5716 76.289 41.2296 76.9019 43.7624C76.5056 42.7871 76.339 41.7323 76.4151 40.681C76.4913 39.6298 76.8081 38.6106 77.3407 37.7038C77.8733 36.797 78.6071 36.0272 79.4845 35.4549C80.3619 34.8827 81.3589 34.5236 82.3971 34.4059C83.4353 34.2882 84.4864 34.4151 85.4678 34.7767C86.4492 35.1382 87.334 35.7245 88.0528 36.4895C88.7716 37.2545 89.3046 38.1772 89.6101 39.1853C89.9156 40.1933 89.9851 41.259 89.8132 42.2988C91.2909 40.1008 94.4616 39.2707 96.8122 40.4664C99.1627 41.6621 100.387 44.7277 99.5138 47.2334L67.1602 47.1751" fill="#F8F9FA"/>
</g>
<defs>
<clipPath id="clip0_1575_4777">
<rect width="175" height="126" fill="white"/>
</clipPath>
</defs>
</svg>
