<svg width="24" height="24" viewBox="0 0 24 24" fill="none" xmlns="http://www.w3.org/2000/svg">
<path d="M19.142 11.3102C18.6709 11.3102 18.3008 11.6803 18.3008 12.1514V13.817L13.6068 9.13989C13.2871 8.8202 12.7319 8.8202 12.4122 9.13989L9.7203 11.8149L5.44693 7.54155C5.11047 7.20509 4.58892 7.20509 4.25234 7.54155C3.91589 7.87801 3.91589 8.39956 4.25234 8.73613L9.13139 13.6152C9.45108 13.9349 10.0063 13.9349 10.326 13.6152L13.0011 10.9232L17.1063 15.0284H15.4406C14.9695 15.0284 14.5994 15.3985 14.5994 15.8696C14.5994 16.3407 14.9695 16.7108 15.4406 16.7108H19.1588C19.6299 16.7108 20 16.3407 20 15.8696V12.1514C19.9832 11.6803 19.6131 11.3102 19.142 11.3102H19.142Z" fill="#9764FF"/>
</svg>
