<svg width="28" height="28" viewBox="0 0 28 28" fill="none" xmlns="http://www.w3.org/2000/svg">
<path d="M14.0026 2.33203C7.5591 2.33203 2.33594 7.5552 2.33594 13.9987C2.33594 20.4422 7.5591 25.6654 14.0026 25.6654C20.4461 25.6654 25.6693 20.4422 25.6693 13.9987C25.6693 7.5552 20.4461 2.33203 14.0026 2.33203Z" fill="url(#paint0_linear_1584_5067)"/>
<path d="M15.5779 17.0936H18.5973L19.0715 14.0264H15.5779V12.3499C15.5779 11.0759 15.9944 9.946 17.1862 9.946H19.1013V7.26967C18.7647 7.22417 18.053 7.125 16.7084 7.125C13.9003 7.125 12.2541 8.60783 12.2541 11.9865V14.027H9.36719V17.0942H12.2535V25.5245C12.8252 25.6097 13.4044 25.668 13.9989 25.668C14.5361 25.668 15.0605 25.619 15.5779 25.549V17.0936Z" fill="white"/>
<defs>
<linearGradient id="paint0_linear_1584_5067" x1="5.83185" y1="5.82795" x2="23.6947" y2="23.6908" gradientUnits="userSpaceOnUse">
<stop stop-color="#2AA4F4"/>
<stop offset="1" stop-color="#007AD9"/>
</linearGradient>
</defs>
</svg>
